<?xml version="1.0" encoding="UTF-8"?>
<svg id="_Слой_1" data-name="Слой 1" xmlns="http://www.w3.org/2000/svg" viewBox="0 0 213.39 45.15">
  <defs>
    <style>
      .cls-1, .cls-2 {
        fill: #1a1a18;
      }

      .cls-1, .cls-3 {
        fill-rule: evenodd;
        stroke-width: 0px;
      }

      .cls-2 {
        font-family: Arial-BoldMT, Arial;
        font-size: 4.7px;
        font-weight: 700;
      }

      .cls-3 {
        fill: #e4101f;
      }
    </style>
  </defs>
  <path class="cls-1" d="m74.33,14.43c.54.39.9,1.81,1.15,2.57.33,1,.67,1.86,1.06,2.86l2.1,5.74h-8.23c.32-.67.72-1.94,1-2.72.46-1.28,2.85-7.62,2.91-8.45h0Zm19.59,5.88h-3.33v-7.84c5.48,0,11.36-1.05,11.36,4.11,0,3.54-4.41,3.72-8.03,3.72h0Zm-49.56-8.82v22.53c0,2.13,1.37,3.13,3.53,3.13h16.85c2.06,0,3.79-5.87,4.11-7.25h11.36c.22.93,2.01,5.42,2.51,6.11,1.22,1.66,2.32,1.03,3.4.97.72-.04,2.8.82,3.97-1.32.8-1.46.51-9.17.51-11.25,5.21,0,5.84.53,8.95,5.74,1.46,2.45,3.54,6.99,5.94,6.99,1.35,0,2.94-.9,2.94-2.16,0-2.74-3.93-8.43-6.21-10.25-.49-.39-.92-.64-1.24-1.11,3.06-.25,6.86-3.15,6.86-6.46v-1.96c0-3.99-3.77-7.05-7.84-7.05h-12.54c-3.64,0-2.74,4.34-2.74,7.44v10.19c-1.48-1.71-5.46-15.15-7.6-16.88-1.75-1.42-4.51-1.08-5.75.59-1.05,1.4-7.44,18.21-8.8,21.76-.18.46-.34,1.2-.96,1.2h-10.77c-.45,0-.59-.14-.59-.59v-7.64h12.34c3.47,0,3.35-4.51.2-4.51h-12.54v-7.05h13.52c3.16,0,4.08-4.7-.98-4.7h-13.91c-2.82,0-4.51.69-4.51,3.53Z"/>
  <path class="cls-1" d="m18.7,11.69v22.53c0,3.61,5.01,4.28,5.46-.02l.02-16.44s.08.04.09.11c.01.06.07.08.09.11l10.07,15.4c1.44,2.4,2.58,3.78,5.23,3.78,2.51,0,2.74-3.22,2.74-5.09V12.67c0-2.44-.33-4.7-2.74-4.7-3.63,0-2.74,5.23-2.74,8.42v11.17c-.48-.35-9.35-13.93-10.31-15.36-1-1.5-2.11-4.23-4.39-4.23-2.13,0-3.53,1.52-3.53,3.72Z"/>
  <path class="cls-1" d="m110.38,16c0,8.66,11.77,7.69,14.64,10.04,2.75,2.25,1.81,6.81-4.65,6.81-4.64,0-4.88-4.36-6.15-5.8-1.28-1.46-4.43-.57-4.43,1.68,0,2.52,2.03,5.21,3.52,6.27,6.29,4.48,18.81,1.86,18.81-6.08,0-2.28.07-3.52-1.42-5.44-3.53-4.54-12.75-3.62-14.65-6.91-1.33-2.3,1.48-4.31,3.92-4.31,4.41,0,4.2.76,6.3,4.08,2.38,3.76,8.22-1.55,1.79-6.3-4.78-3.53-17.69-2.75-17.69,5.94Z"/>
  <path class="cls-1" d="m166.4,11.69v21.55c0,2.6.92,3.92,3.53,3.92h13.91c4.27,0,3.65-4.9.2-4.9h-11.75V11.1c0-3.76-5.88-4.37-5.88.59Z"/>
  <path class="cls-3" d="m134.47,21.68h.98c0-4.05,3.5-8.52,7.05-10.19,6.88-3.23,15.92-.02,18.02,9.01l.98.2c-2.05.17-2.78,4.31.78,4.31,2.37,0,2.99-3.7.39-4.31l.4-.18c.28-.11.26-.05.58-.21-.29-.59-.44-1.65-.7-2.43-1.29-3.73-4.12-6.72-7.65-8.41-3.94-1.9-8.66-1.69-12.61.07-2.72,1.21-5.46,4.06-6.8,6.72-.67,1.34-1.43,3.5-1.43,5.42Z"/>
  <path class="cls-3" d="m147.99,37.16h2.35c6.56,0,12.89-6.74,13.32-11.95h-3.13c-.09,4.26-5.77,10.19-11.56,10.19-4.34,0-6.78-.73-9.94-3.58-.3-.27-.38-.46-.62-.75-.28-.35-.44-.45-.73-.83-1.86-2.45-1.87-4.2-2.43-6.58h-.78c0,6.88,6.81,13.52,13.52,13.52Z"/>
  <text class="cls-2" transform="translate(189.26 14.87)"><tspan x="0" y="0">R</tspan></text>
  <path class="cls-1" d="m190.89,15.4c.83,0,1.59-.34,2.13-.88.55-.55.88-1.3.88-2.13s-.34-1.59-.88-2.13c-.55-.55-1.3-.88-2.13-.88s-1.59.34-2.13.88c-.55.55-.88,1.3-.88,2.13s.34,1.59.88,2.13c.55.55,1.3.88,2.13.88h0Zm2.69-.33c-.69.69-1.64,1.11-2.69,1.11s-2-.43-2.69-1.11c-.69-.69-1.11-1.64-1.11-2.69s.43-2,1.11-2.69c.69-.69,1.64-1.11,2.69-1.11s2,.43,2.69,1.11c.69.69,1.11,1.64,1.11,2.69s-.43,2-1.11,2.69Z"/>
</svg>